<?xml version="1.0" encoding="utf-8"?>
<svg viewBox="0 0 32 32" width="54px" height="54px" xmlns="http://www.w3.org/2000/svg">
  <g id="Page-1" stroke="none" stroke-width="1" fill="none" fill-rule="evenodd" transform="matrix(0.58, 0, 0, 0.58, 0.34, 0.34)">
    <g id="logo-mobile">
      <rect id="Rectangle-6" stroke-width="4" fill-rule="nonzero" x="2" y="2" width="50" height="50" style="paint-order: stroke; stroke: rgb(40, 98, 105);"/>
      <path d="M 24.024 34.3 C 24.264 34.913 24.544 35.36 24.864 35.64 C 25.177 35.92 25.484 36.07 25.784 36.09 L 25.784 36.65 C 24.664 36.597 23.247 36.57 21.534 36.57 C 19.627 36.57 18.207 36.597 17.274 36.65 L 17.274 36.09 C 17.981 36.05 18.484 35.96 18.784 35.82 C 19.084 35.68 19.234 35.433 19.234 35.08 C 19.234 34.747 19.121 34.3 18.894 33.74 L 17.214 29.15 L 11.114 29.15 L 10.384 31.08 C 9.864 32.42 9.604 33.457 9.604 34.19 C 9.604 34.877 9.814 35.357 10.234 35.63 C 10.654 35.897 11.274 36.05 12.094 36.09 L 12.094 36.65 C 10.827 36.597 9.671 36.57 8.624 36.57 C 7.764 36.57 7.054 36.597 6.494 36.65 L 6.494 36.09 C 7.407 35.923 8.211 34.943 8.904 33.15 L 15.284 16.77 C 15.491 16.79 15.817 16.8 16.264 16.8 C 16.711 16.8 17.027 16.79 17.214 16.77 L 24.024 34.3 Z M 11.334 28.59 L 17.024 28.59 L 14.254 21.03 L 11.334 28.59 Z" transform="matrix(1, 0, 0, 1, 0, 0)" style="fill: rgb(47, 47, 65); white-space: pre;"/>
      <path d="M 46.98 36.31 L 47.49 36.45 C 47.17 38.563 46.523 40.02 45.55 40.82 C 45.143 41.16 44.627 41.427 44 41.62 C 43.373 41.813 42.687 41.91 41.94 41.91 C 40.933 41.91 39.94 41.753 38.96 41.44 C 37.98 41.12 36.77 40.643 35.33 40.01 C 34.977 39.863 34.59 39.7 34.17 39.52 C 33.75 39.34 33.28 39.15 32.76 38.95 L 32.09 38.75 C 31.73 38.937 31.34 39.08 30.92 39.18 C 30.5 39.287 30.103 39.34 29.73 39.34 C 29.343 39.34 29.027 39.28 28.78 39.16 C 28.54 39.033 28.42 38.85 28.42 38.61 C 28.42 38.103 28.933 37.85 29.96 37.85 C 30.647 37.85 31.357 37.983 32.09 38.25 C 32.723 38.063 33.393 37.81 34.1 37.49 C 34.233 37.437 34.43 37.357 34.69 37.25 C 34.95 37.15 35.183 37.063 35.39 36.99 C 33.657 36.817 32.14 36.307 30.84 35.46 C 29.54 34.613 28.54 33.46 27.84 32 C 27.14 30.547 26.79 28.85 26.79 26.91 C 26.79 24.857 27.21 23.037 28.05 21.45 C 28.89 19.863 30.063 18.63 31.57 17.75 C 33.07 16.87 34.783 16.43 36.71 16.43 C 38.683 16.43 40.413 16.833 41.9 17.64 C 43.387 18.44 44.54 19.6 45.36 21.12 C 46.18 22.647 46.59 24.463 46.59 26.57 C 46.59 28.55 46.197 30.32 45.41 31.88 C 44.63 33.433 43.53 34.66 42.11 35.56 C 40.69 36.453 39.077 36.937 37.27 37.01 C 36.817 37.07 36.413 37.157 36.06 37.27 C 35.707 37.377 35.287 37.533 34.8 37.74 C 34.207 38 33.63 38.217 33.07 38.39 L 35.33 38.58 C 37.703 38.787 39.413 38.89 40.46 38.89 C 41.147 38.89 41.847 38.843 42.56 38.75 C 43.713 38.617 44.627 38.37 45.3 38.01 C 45.973 37.643 46.533 37.077 46.98 36.31 Z M 31.44 26.79 C 31.44 28.737 31.68 30.447 32.16 31.92 C 32.633 33.393 33.277 34.53 34.09 35.33 C 34.903 36.137 35.803 36.54 36.79 36.54 C 37.817 36.54 38.723 36.123 39.51 35.29 C 40.29 34.463 40.89 33.303 41.31 31.81 C 41.73 30.317 41.94 28.607 41.94 26.68 C 41.94 24.74 41.703 23.033 41.23 21.56 C 40.75 20.087 40.107 18.947 39.3 18.14 C 38.487 17.34 37.583 16.94 36.59 16.94 C 35.563 16.94 34.66 17.353 33.88 18.18 C 33.093 19.013 32.49 20.177 32.07 21.67 C 31.65 23.163 31.44 24.87 31.44 26.79 Z" transform="matrix(1, 0, 0, 1, 0, 0)" style="white-space: pre; fill: rgb(40, 98, 105);"/>
    </g>
  </g>
</svg>